<svg width="56" height="71" viewBox="0 0 56 71" fill="none" xmlns="http://www.w3.org/2000/svg">
<path d="M38.6899 33.1813C40.6041 33.9432 42.5858 34.5232 44.6087 34.9136H44.7013C44.8079 34.9179 44.9126 34.8852 44.998 34.821C45.0552 34.7814 45.1036 34.7303 45.1402 34.6711C45.1768 34.6119 45.2008 34.5458 45.2106 34.4769C45.2284 34.3441 45.1957 34.2096 45.119 34.0998C45.0422 33.99 44.9273 33.9129 44.7966 33.884C43.0181 33.564 33.9595 31.5958 30.213 25.4892C30.1415 25.3751 30.0288 25.2934 29.8983 25.2603C29.7677 25.2272 29.6294 25.2455 29.5122 25.3118C29.4514 25.3458 29.3981 25.3916 29.3555 25.4468C29.3129 25.5019 29.2818 25.5654 29.2643 25.6328C29.2469 25.6987 29.243 25.7673 29.253 25.8347C29.263 25.9021 29.2868 25.9668 29.3225 26.0248C31.6124 29.7537 35.6796 31.9707 38.6899 33.1813Z" fill="#242222"/>
<path d="M29.7284 23.6778C38.5142 22.8131 42.5677 26.5355 43.6008 27.686C43.6497 27.7413 43.7096 27.7854 43.7769 27.816C43.8441 27.8466 43.917 27.8628 43.9909 27.8634C44.1004 27.8616 44.2073 27.8295 44.2998 27.7709C44.3605 27.7289 44.4111 27.6741 44.4479 27.6101C44.4847 27.5461 44.5067 27.4746 44.5125 27.401C44.5202 27.3311 44.5136 27.2606 44.4931 27.1933C44.4725 27.126 44.4387 27.0636 44.3933 27.01C43.302 25.7531 39.0236 21.7109 29.621 22.6478C29.5542 22.654 29.4895 22.6734 29.4304 22.7051C29.3713 22.7369 29.3189 22.7802 29.2769 22.8325C29.2322 22.8866 29.1987 22.9491 29.1784 23.0163C29.1581 23.0834 29.1514 23.1537 29.1586 23.2235C29.1746 23.359 29.2434 23.4831 29.35 23.5681C29.4567 23.6531 29.5928 23.6924 29.7284 23.6778Z" fill="#242222"/>
<path d="M14.1232 26.9085C14.0548 26.9162 13.9887 26.9381 13.9293 26.973C13.8699 27.0079 13.8184 27.0548 13.7782 27.1108C13.6968 27.2241 13.659 27.3633 13.6719 27.5023C15.4744 39.3936 26.5954 40.2119 28.8603 40.247L28.8962 40.2592L28.9314 40.247C29.0541 40.2435 29.1709 40.194 29.2588 40.1084C29.3467 40.0227 29.3991 39.9071 29.4058 39.7846L29.4178 39.7367C29.4183 39.6682 29.4052 39.6001 29.3792 39.5367C29.3532 39.4732 29.3149 39.4154 29.2665 39.3669C29.2181 39.3184 29.1606 39.2801 29.0972 39.254C29.0338 39.2279 28.9657 39.2148 28.8971 39.2152H28.8612C26.7341 39.18 16.376 38.4217 14.704 27.3469C14.6827 27.2129 14.6104 27.0923 14.5021 27.0105C14.3938 26.9288 14.258 26.8922 14.1232 26.9085Z" fill="#242222"/>
<path d="M24.2146 19.1897C24.2146 19.1897 24.1666 18.2767 24.1434 17.5766C24.1314 17.1975 24.2267 16.2477 24.2267 16.2477C24.2267 16.2477 24.4283 16.2845 25.3171 17.102C25.613 17.386 26.0994 17.979 26.0994 17.979L24.2146 19.1897ZM26.7282 18.3949L27.2139 18.0513L26.8937 17.6597C24.3801 14.458 21.2968 13.463 17.1711 14.5154C15.0256 15.0611 10.0334 17.3481 10.1758 26.7517C10.235 31.6717 11.8358 35.6561 14.9183 38.573C19.744 43.161 26.4305 43.5168 28.3634 43.5168C28.4818 43.5168 28.6121 43.5171 28.7332 43.505C28.8019 43.5051 28.87 43.4912 28.9335 43.4649C28.997 43.4385 29.0548 43.4002 29.1033 43.3515C29.1971 43.2473 29.248 43.1114 29.2457 42.9713C29.2443 42.9034 29.2292 42.8364 29.2015 42.7744C29.1738 42.7124 29.134 42.6564 29.0843 42.61C29.0347 42.5637 28.9763 42.5278 28.9125 42.5044C28.8487 42.4809 28.7808 42.4704 28.7129 42.4737C24.8351 42.5449 19.3723 41.3584 15.6351 37.8256C12.7682 35.0983 11.2839 31.3756 11.2126 26.7395C11.1294 20.5506 13.335 16.5437 17.4495 15.4525C19.3969 14.8286 21.5092 14.9729 23.3536 15.8557C23.3825 15.8693 23.4104 15.8849 23.4369 15.9027C23.3076 17.3013 23.3433 18.7103 23.5433 20.1005L23.5905 20.3502L24.0416 20.1005C24.1151 20.0656 24.1864 20.0258 24.2545 19.9813L24.5153 19.8395V19.8268C25.1673 19.4486 25.9737 18.9017 26.413 18.6058C26.5141 18.5296 26.6192 18.4592 26.7282 18.3949Z" fill="#242222"/>
<path d="M19.4009 19.1067C19.2766 19.1067 19.1575 19.0573 19.0696 18.9694C18.9818 18.8816 18.9324 18.7622 18.9324 18.638C18.9324 18.5137 18.9818 18.3948 19.0696 18.307C19.1575 18.2191 19.2766 18.1697 19.4009 18.1697C19.5251 18.1697 19.6442 18.2191 19.7321 18.307C19.8199 18.3948 19.8694 18.5137 19.8694 18.638C19.8694 18.7622 19.8199 18.8816 19.7321 18.9694C19.6442 19.0573 19.5251 19.1067 19.4009 19.1067ZM19.4009 17.4584C19.167 17.4574 18.9381 17.5256 18.7432 17.6549C18.5482 17.7842 18.396 17.9687 18.306 18.1846C18.2161 18.4005 18.1924 18.6384 18.2378 18.8678C18.2833 19.0973 18.3957 19.308 18.5612 19.4734C18.7266 19.6387 18.9375 19.751 19.167 19.7962C19.3964 19.8415 19.6343 19.8177 19.8502 19.7276C20.066 19.6375 20.2501 19.4851 20.3792 19.29C20.5083 19.095 20.5767 18.866 20.5754 18.6321C20.5742 18.321 20.45 18.0229 20.23 17.803C20.0099 17.5831 19.7119 17.4594 19.4009 17.4584Z" fill="#242222"/>
<path d="M54.1881 27.9635C54.1641 27.9635 54.153 27.9513 54.129 27.9513C54.1038 27.9362 54.0751 27.928 54.0457 27.9274H53.9977C53.8857 27.9156 53.7725 27.9279 53.6656 27.9635C53.6416 27.9746 53.6065 27.9745 53.5824 27.9866C53.576 27.9932 53.5675 27.9974 53.5584 27.9985C53.5343 28.0105 53.4991 28.0217 53.4751 28.0337C53.4468 28.0543 53.4156 28.0705 53.3826 28.0818C53.3826 28.0939 53.3706 28.0938 53.3595 28.1049C53.3413 28.119 53.3215 28.1309 53.3003 28.1401L53.1227 28.2715C51.4705 29.3964 49.6134 30.1859 47.657 30.5955C47.6339 30.5955 47.6099 30.6075 47.5859 30.6075C47.5033 30.6358 47.4277 30.6815 47.3644 30.7416C47.3011 30.8017 47.2514 30.8747 47.2188 30.9556C47.1861 31.0366 47.1713 31.1236 47.1753 31.2108C47.1793 31.298 47.2019 31.3835 47.2418 31.4612C47.9289 33.5004 48.6882 35.6579 49.0563 36.678C46.0117 37.0843 42.92 36.9679 39.9145 36.3339C33.1448 34.8643 28.3542 30.7729 25.6629 24.1568C25.6116 24.0315 25.514 23.931 25.3903 23.8759C25.2666 23.8208 25.1264 23.8154 24.9989 23.861C24.8682 23.9161 24.7626 24.0174 24.7021 24.1457C24.6756 24.2096 24.6619 24.2781 24.6619 24.3473C24.6619 24.4165 24.6756 24.485 24.7021 24.549C25.9102 27.7807 27.9208 30.6518 30.5448 32.892C33.1687 35.1322 36.3197 36.6676 39.7009 37.354C41.6065 37.761 43.5499 37.9638 45.4985 37.9589C46.9527 37.9706 48.405 37.8515 49.8378 37.6028C49.9105 37.5913 49.98 37.5642 50.0413 37.5233C50.1026 37.4825 50.1543 37.4289 50.1929 37.3662C50.2329 37.299 50.2577 37.2238 50.2659 37.146C50.274 37.0683 50.2653 36.9897 50.2401 36.9157C50.2281 36.8926 49.2441 34.1773 48.3433 31.4851C50.2585 31.0304 52.072 30.2222 53.6906 29.1019C53.4115 35.6702 50.6814 41.8955 46.0386 46.55C41.3958 51.2046 35.1774 53.9506 28.6098 54.2464C22.0422 54.5422 15.6022 52.3663 10.5599 48.1479C5.51749 43.9295 2.23876 37.9746 1.37037 31.458C0.50197 24.9414 2.10695 18.3361 5.86871 12.9444C9.63046 7.55282 15.276 3.76641 21.6918 2.33204C28.1076 0.897658 34.8281 1.91933 40.5277 5.19568C46.2273 8.47204 50.4924 13.7652 52.4818 20.0312C52.519 20.1489 52.593 20.2517 52.6928 20.3243C52.7927 20.3968 52.9133 20.4354 53.0367 20.4345C53.112 20.4344 53.1864 20.4174 53.2541 20.3846C53.3219 20.3517 53.3812 20.3039 53.4279 20.2448C53.4708 20.1834 53.4996 20.1133 53.5119 20.0393C53.5242 19.9654 53.5198 19.8896 53.4991 19.8176C52.2841 15.899 50.1997 12.3055 47.4013 9.30545C44.6029 6.30535 41.1628 3.9762 37.3381 2.49189C33.5134 1.00758 29.4028 0.406488 25.3132 0.733469C21.2236 1.06045 17.2607 2.30697 13.7204 4.38014C10.1801 6.45332 7.15395 9.29938 4.86779 12.706C2.58164 16.1126 1.09458 19.9919 0.517683 24.0538C-0.0592113 28.1157 0.288984 32.2554 1.53621 36.1639C2.78343 40.0723 4.89746 43.6485 7.72049 46.6254C11.4028 50.5069 16.1468 53.2176 21.3604 54.4191C26.5739 55.6207 32.0259 55.2598 37.0356 53.3816C42.0453 51.5035 46.3907 48.1913 49.5293 43.8584C52.668 39.5256 54.4608 34.3642 54.6838 29.0186L54.6959 28.8531V28.805C54.7021 28.6306 54.6574 28.4582 54.5672 28.3088C54.477 28.1593 54.3453 28.0394 54.1881 27.9635Z" fill="#242222"/>
<path d="M8.37743 68.6377C7.96329 69.1149 7.41328 69.4546 6.80099 69.6108C6.1887 69.767 5.5433 69.7324 4.95112 69.5119C4.35895 69.2914 3.84833 68.8953 3.48735 68.3766C3.12638 67.858 2.93234 67.2415 2.93124 66.6096C2.93107 65.9774 3.12338 65.3601 3.48261 64.8399C3.84184 64.3197 4.35083 63.9212 4.94209 63.6974C5.53336 63.4737 6.17875 63.4353 6.79241 63.5873C7.40607 63.7392 7.95895 64.0743 8.37743 64.5482C8.41923 64.607 8.47482 64.6546 8.53932 64.6868C8.60383 64.7191 8.6754 64.7352 8.7475 64.7334C8.81711 64.74 8.88726 64.7321 8.95386 64.7108C9.02047 64.6895 9.08209 64.655 9.13495 64.6092C9.24026 64.513 9.30612 64.3813 9.31986 64.2393C9.31867 64.0934 9.27006 63.9518 9.18123 63.8361C8.71862 63.3127 8.13215 62.9133 7.47564 62.6746C6.81913 62.436 6.11331 62.3655 5.42257 62.4696C4.73182 62.5737 4.07821 62.8491 3.52122 63.2707C2.96423 63.6923 2.52157 64.2468 2.23379 64.8833C1.946 65.5198 1.82224 66.2183 1.87366 66.9149C1.92507 67.6116 2.15011 68.2842 2.52821 68.8716C2.90632 69.4589 3.42542 69.9421 4.03827 70.2773C4.65112 70.6125 5.33816 70.7892 6.03671 70.7907C6.63354 70.7909 7.22337 70.6622 7.766 70.4137C8.30864 70.1652 8.79146 69.8027 9.18123 69.3507C9.27176 69.2416 9.3208 69.1041 9.31986 68.9623C9.30638 68.8203 9.24047 68.6885 9.13495 68.5925C9.02654 68.5025 8.88794 68.4572 8.74727 68.4656C8.6066 68.474 8.47433 68.5353 8.37743 68.6377Z" fill="#242424"/>
<path d="M29.0978 62.4289C29.0262 62.4271 28.9552 62.4398 28.8887 62.4664C28.8222 62.4929 28.7617 62.5328 28.711 62.5833C28.6603 62.6339 28.6205 62.6944 28.5938 62.7608C28.5672 62.8273 28.5542 62.8983 28.5559 62.9699V67.3822C28.5559 67.9954 28.3123 68.5833 27.8788 69.0169C27.4452 69.4505 26.857 69.6943 26.2438 69.6943C25.6306 69.6943 25.0425 69.4505 24.6089 69.0169C24.1753 68.5833 23.9318 67.9954 23.9318 67.3822V62.9699C23.9322 62.8987 23.9185 62.828 23.8914 62.7622C23.8643 62.6963 23.8241 62.6364 23.7737 62.5861C23.7233 62.5357 23.6635 62.4961 23.5976 62.4691C23.5317 62.4421 23.4611 62.4284 23.3899 62.4289C23.3196 62.4289 23.2499 62.4431 23.1851 62.4704C23.1203 62.4978 23.0618 62.5379 23.0128 62.5883C22.9638 62.6388 22.9254 62.6984 22.8999 62.764C22.8745 62.8295 22.8624 62.8996 22.8645 62.9699V67.3822C22.8645 68.2809 23.2216 69.1428 23.857 69.7782C24.4925 70.4137 25.3544 70.7708 26.2531 70.7708C27.1518 70.7708 28.0137 70.4137 28.6491 69.7782C29.2846 69.1428 29.6417 68.2809 29.6417 67.3822V62.9699C29.6422 62.8985 29.6285 62.8278 29.6013 62.7617C29.5741 62.6957 29.5341 62.6355 29.4834 62.5851C29.4328 62.5348 29.3726 62.495 29.3064 62.4682C29.2402 62.4413 29.1692 62.428 29.0978 62.4289Z" fill="#242424"/>
<path d="M38.3354 62.4613C38.2693 62.4359 38.1985 62.4237 38.1277 62.4257C38.0569 62.4276 37.9873 62.4437 37.9227 62.4726C37.8581 62.5016 37.7997 62.543 37.7511 62.5945C37.7026 62.6461 37.6651 62.7067 37.64 62.7729L35.4562 68.6917L33.2598 62.7729C33.2353 62.7063 33.1976 62.6451 33.1491 62.5932C33.1007 62.5413 33.0428 62.4999 32.978 62.4708C32.9132 62.4418 32.8431 62.4259 32.7721 62.4243C32.7011 62.4227 32.6304 62.4353 32.5644 62.4613C32.4994 62.4859 32.4401 62.523 32.3896 62.5706C32.3391 62.6182 32.2986 62.6752 32.2704 62.7386C32.2115 62.8707 32.2058 63.0206 32.2546 63.1568L34.9478 70.4361C34.9845 70.5401 35.0527 70.6302 35.1428 70.694C35.2329 70.7577 35.3405 70.7919 35.4508 70.7919C35.5612 70.7919 35.6687 70.7577 35.7588 70.694C35.8489 70.6302 35.9171 70.5401 35.9539 70.4361L38.6628 63.14C38.7085 63.0066 38.6997 62.8607 38.6385 62.7336C38.5772 62.6066 38.4683 62.5087 38.3354 62.4613Z" fill="#242424"/>
<path d="M46.5683 63.4967C46.7089 63.4956 46.8436 63.4403 46.9444 63.3423C47.0452 63.2443 47.1043 63.1112 47.1093 62.9707C47.1096 62.8995 47.0957 62.8292 47.0686 62.7634C47.0416 62.6976 47.002 62.6376 46.9517 62.5873C46.9014 62.537 46.8414 62.4974 46.7756 62.4703C46.7097 62.4433 46.6394 62.4293 46.5683 62.4297H41.8182C41.7469 62.4291 41.676 62.4425 41.61 62.4694C41.544 62.4964 41.4844 62.5365 41.4339 62.5868C41.3834 62.6372 41.3432 62.697 41.316 62.7629C41.2889 62.8289 41.275 62.8994 41.2754 62.9707V70.25C41.2773 70.3933 41.3352 70.5303 41.4366 70.6316C41.538 70.7328 41.6749 70.7902 41.8182 70.7919H46.5683C46.712 70.7919 46.8496 70.735 46.9512 70.6334C47.0528 70.5318 47.1102 70.3937 47.1102 70.25C47.1102 70.1063 47.0528 69.9683 46.9512 69.8666C46.8496 69.765 46.712 69.7081 46.5683 69.7081H42.3592V66.9671H45.3463C45.4893 66.9654 45.6259 66.9079 45.727 66.8068C45.8281 66.7057 45.8856 66.5686 45.8873 66.4256C45.8854 66.284 45.8275 66.1492 45.7261 66.0504C45.6247 65.9516 45.4879 65.8969 45.3463 65.8987H42.3592V63.494L46.5683 63.4967Z" fill="#242424"/>
<path d="M54.9876 69.7072H50.7776V66.9657H53.7648C53.9077 66.964 54.0444 66.9065 54.1455 66.8054C54.2466 66.7043 54.3041 66.5677 54.3058 66.4247C54.3038 66.2831 54.246 66.1483 54.1446 66.0495C54.0431 65.9506 53.9064 65.896 53.7648 65.8977H50.7776V63.4931H54.9876C55.1281 63.4918 55.2623 63.4362 55.3629 63.3382C55.4635 63.2402 55.5227 63.1074 55.5277 62.967C55.5281 62.896 55.5141 62.8255 55.4871 62.7598C55.4601 62.694 55.4203 62.6344 55.3701 62.5841C55.3199 62.5338 55.2606 62.4938 55.1949 62.4667C55.1292 62.4396 55.0587 62.4258 54.9876 62.426H50.2366C50.1653 62.4254 50.0945 62.4388 50.0285 62.4658C49.9625 62.4927 49.9029 62.5324 49.8524 62.5827C49.8018 62.6331 49.7617 62.6934 49.7345 62.7593C49.7073 62.8252 49.6935 62.8957 49.6939 62.967V70.2464C49.6958 70.3897 49.7536 70.5263 49.8551 70.6275C49.9565 70.7288 50.0933 70.7866 50.2366 70.7883H54.9876C55.1314 70.7883 55.2689 70.7309 55.3706 70.6293C55.4722 70.5277 55.5295 70.3901 55.5295 70.2464C55.5295 70.1026 55.4722 69.9646 55.3706 69.863C55.2689 69.7614 55.1314 69.7045 54.9876 69.7045V69.7072Z" fill="#242424"/>
<path d="M20.6484 62.7091C20.6022 62.772 20.4478 62.7406 20.3396 62.6472C20.2166 62.5547 20.1696 62.4147 20.2167 62.3528C20.2621 62.3056 20.4173 62.3217 20.5412 62.4151C20.6642 62.5242 20.6919 62.6619 20.6484 62.7091ZM19.179 66.6129C19.1754 67.2241 18.9907 67.8202 18.6484 68.3266C18.3062 68.8331 17.8218 69.2269 17.256 69.4583C16.6903 69.6897 16.0686 69.7486 15.4696 69.6272C14.8705 69.5057 14.3209 69.2094 13.89 68.7759C13.4591 68.3425 13.1662 67.7911 13.0482 67.1914C12.9303 66.5916 12.9928 65.9702 13.2275 65.4059C13.4623 64.8415 13.8588 64.3592 14.3673 64.02C14.8758 63.6808 15.4734 63.4998 16.0846 63.4998C16.8336 63.5055 17.5566 63.7741 18.1275 64.2589L16.3167 66.0245C15.9607 66.3658 16.5016 66.8919 16.8428 66.5497C17.4458 65.9772 18.034 65.4048 18.6222 64.8324C18.9889 65.3529 19.1836 65.9753 19.179 66.612V66.6129ZM20.1233 62.3067C19.721 62.7099 19.3028 63.1133 18.8848 63.5165C18.122 62.814 17.1216 62.4266 16.0846 62.4318C15.2573 62.4309 14.4481 62.6754 13.7597 63.1344C13.0713 63.5935 12.5348 64.2461 12.2176 65.0103C11.9004 65.7744 11.8169 66.6155 11.9778 67.4271C12.1387 68.2387 12.5366 68.9841 13.1214 69.5694C13.7062 70.1547 14.4516 70.5534 15.263 70.715C16.0744 70.8766 16.9154 70.794 17.6798 70.4775C18.4442 70.1609 19.0976 69.6247 19.5572 68.9367C20.0168 68.2488 20.2621 67.4403 20.2619 66.6129C20.2639 65.6932 19.959 64.7991 19.3953 64.0724C19.8124 63.6534 20.2277 63.2518 20.6642 62.8495C20.7321 62.7769 20.769 62.6811 20.7674 62.5817C20.7659 62.4824 20.726 62.3875 20.6559 62.3171C20.5858 62.2467 20.491 62.2058 20.3917 62.2038C20.2924 62.2017 20.1962 62.2384 20.1233 62.3058V62.3067Z" fill="#242424"/>
</svg>
