<svg width="1024" height="1024" viewBox="0 0 1024 1024" fill="none" xmlns="http://www.w3.org/2000/svg">
<path d="M722.727 611.65C758.715 625.974 795.969 636.877 834 644.216H835.74C837.746 644.298 839.714 643.682 841.318 642.476C842.393 641.731 843.304 640.77 843.992 639.658C844.681 638.544 845.131 637.302 845.317 636.006C845.651 633.511 845.036 630.982 843.593 628.918C842.151 626.854 839.991 625.404 837.532 624.86C804.097 618.844 633.794 581.842 563.361 467.039C562.015 464.893 559.898 463.356 557.444 462.734C554.989 462.113 552.389 462.456 550.185 463.702C549.042 464.341 548.039 465.204 547.239 466.24C546.438 467.277 545.854 468.471 545.523 469.738C545.198 470.977 545.123 472.266 545.312 473.533C545.5 474.8 545.947 476.017 546.619 477.107C589.668 547.21 666.133 588.891 722.727 611.65Z" fill="white"/>
<path d="M554.251 432.983C719.424 416.726 795.631 486.707 815.051 508.337C815.972 509.376 817.098 510.206 818.363 510.781C819.627 511.356 820.997 511.661 822.386 511.673C824.445 511.637 826.454 511.034 828.193 509.932C829.335 509.143 830.286 508.113 830.977 506.91C831.67 505.707 832.084 504.363 832.192 502.979C832.338 501.666 832.212 500.338 831.827 499.074C831.441 497.809 830.805 496.636 829.951 495.627C809.434 471.998 729.001 396.005 552.231 413.618C550.975 413.735 549.759 414.098 548.648 414.695C547.538 415.293 546.552 416.107 545.761 417.09C544.921 418.107 544.293 419.282 543.911 420.545C543.529 421.808 543.402 423.129 543.537 424.442C543.839 426.989 545.132 429.321 547.137 430.919C549.142 432.518 551.701 433.256 554.251 432.983Z" fill="white"/>
<path d="M260.872 493.719C259.586 493.866 258.343 494.277 257.226 494.933C256.109 495.589 255.141 496.469 254.386 497.522C252.856 499.653 252.145 502.27 252.387 504.882C286.273 728.441 495.35 743.824 537.93 744.485L538.605 744.714L539.267 744.485C541.574 744.418 543.77 743.488 545.422 741.878C547.074 740.268 548.06 738.095 548.186 735.792L548.411 734.892C548.42 733.603 548.173 732.323 547.685 731.131C547.196 729.938 546.477 728.85 545.566 727.939C544.656 727.026 543.575 726.306 542.383 725.816C541.191 725.325 539.911 725.079 538.622 725.086H537.947C497.958 724.425 303.225 710.168 271.79 501.962C271.39 499.442 270.031 497.175 267.996 495.638C265.959 494.101 263.405 493.413 260.872 493.719Z" fill="white"/>
<path d="M450.589 348.606C450.589 348.606 449.687 331.443 449.252 318.282C449.026 311.153 450.818 293.297 450.818 293.297C450.818 293.297 454.608 293.989 471.316 309.359C476.881 314.697 486.025 325.846 486.025 325.846L450.589 348.606ZM497.846 333.665L506.977 327.205L500.957 319.844C453.701 259.651 395.734 240.945 318.173 260.731C277.836 270.989 183.982 313.985 186.661 490.773C187.774 583.27 217.868 658.176 275.818 713.014C366.542 799.269 492.249 805.958 528.587 805.958C530.812 805.958 533.263 805.964 535.54 805.738C536.832 805.739 538.112 805.477 539.305 804.982C540.499 804.486 541.586 803.766 542.497 802.851C544.26 800.893 545.218 798.338 545.176 795.703C545.15 794.425 544.864 793.167 544.344 792.001C543.823 790.835 543.075 789.782 542.14 788.911C541.207 788.039 540.11 787.364 538.91 786.924C537.711 786.484 536.434 786.287 535.158 786.347C462.256 787.686 359.555 765.381 289.296 698.964C235.396 647.69 207.491 577.704 206.152 490.544C204.587 374.193 246.053 298.863 323.406 278.347C360.017 266.618 399.728 269.331 434.404 285.928C434.947 286.184 435.472 286.476 435.97 286.811C433.538 313.104 434.209 339.594 437.97 365.73L438.856 370.424L447.338 365.73C448.719 365.074 450.06 364.326 451.341 363.489L456.244 360.823V360.586C468.501 353.474 483.661 343.193 491.921 337.63C493.821 336.198 495.797 334.874 497.846 333.665Z" fill="white"/>
<path d="M360.092 347.046C357.756 347.046 355.516 346.117 353.865 344.465C352.214 342.814 351.283 340.57 351.283 338.233C351.283 335.898 352.214 333.662 353.865 332.01C355.516 330.36 357.756 329.43 360.092 329.43C362.427 329.43 364.668 330.36 366.319 332.01C367.971 333.662 368.9 335.898 368.9 338.233C368.9 340.57 367.971 342.814 366.319 344.465C364.668 346.117 362.427 347.046 360.092 347.046ZM360.092 316.058C355.695 316.039 351.391 317.321 347.727 319.752C344.062 322.183 341.201 325.651 339.508 329.71C337.817 333.769 337.372 338.241 338.227 342.555C339.081 346.868 341.195 350.831 344.306 353.94C347.417 357.047 351.38 359.159 355.694 360.009C360.009 360.86 364.481 360.414 368.539 358.719C372.597 357.025 376.057 354.159 378.485 350.493C380.912 346.826 382.197 342.52 382.173 338.123C382.15 332.276 379.815 326.67 375.679 322.537C371.542 318.403 365.939 316.077 360.092 316.058Z" fill="white"/>
<path d="M1014.09 513.556C1013.64 513.556 1013.43 513.327 1012.98 513.327C1012.51 513.042 1011.97 512.888 1011.42 512.877H1010.51C1008.41 512.655 1006.28 512.887 1004.27 513.556C1003.82 513.764 1003.16 513.762 1002.71 513.988C1002.59 514.113 1002.43 514.192 1002.26 514.213C1001.8 514.439 1001.14 514.65 1000.69 514.876C1000.16 515.262 999.573 515.567 998.952 515.78C998.952 516.006 998.725 516.004 998.516 516.213C998.175 516.479 997.802 516.703 997.404 516.875L994.065 519.345C963.002 540.493 928.09 555.337 891.31 563.037C890.875 563.037 890.425 563.262 889.973 563.262C888.42 563.795 886.999 564.655 885.809 565.784C884.618 566.913 883.684 568.285 883.07 569.807C882.457 571.33 882.179 572.965 882.253 574.604C882.328 576.244 882.754 577.852 883.504 579.312C896.422 617.65 910.697 658.211 917.617 677.388C860.377 685.027 802.253 682.839 745.749 670.919C618.479 643.291 528.415 566.373 477.82 441.988C476.854 439.633 475.02 437.744 472.695 436.708C470.369 435.672 467.733 435.571 465.336 436.428C462.879 437.464 460.893 439.369 459.756 441.781C459.257 442.982 459 444.271 459 445.571C459 446.871 459.257 448.16 459.756 449.362C482.468 510.118 520.269 564.096 569.599 606.211C618.929 648.327 678.168 677.194 741.734 690.097C777.559 697.749 814.096 701.562 850.73 701.468C878.068 701.689 905.372 699.449 932.309 694.775C933.676 694.558 934.982 694.049 936.135 693.28C937.287 692.512 938.26 691.506 938.985 690.326C939.736 689.063 940.203 687.649 940.357 686.187C940.509 684.725 940.345 683.25 939.872 681.858C939.646 681.422 921.146 630.375 904.211 579.761C940.219 571.213 974.312 556.02 1004.74 534.958C999.494 658.443 948.167 775.477 860.883 862.984C773.599 950.49 656.692 1002.12 533.221 1007.68C409.751 1013.24 288.678 972.33 193.881 893.024C99.0846 813.717 37.4439 701.765 21.118 579.252C4.79218 456.739 34.9658 332.559 105.687 231.196C176.409 129.833 282.544 58.6485 403.163 31.6822C523.781 4.71577 650.124 23.9233 757.279 85.5189C864.432 147.114 944.617 246.627 982.017 364.428C982.716 366.641 984.106 368.573 985.983 369.937C987.861 371.302 990.127 372.028 992.449 372.009C993.864 372.009 995.262 371.688 996.537 371.071C997.81 370.454 998.926 369.555 999.803 368.443C1000.61 367.289 1001.15 365.97 1001.38 364.58C1001.61 363.191 1001.53 361.766 1001.14 360.411C978.3 286.742 939.112 219.185 886.503 162.782C833.892 106.38 769.219 62.5926 697.314 34.6875C625.409 6.78236 548.129 -4.51826 471.245 1.629C394.361 7.77626 319.857 31.2109 253.3 70.1867C186.742 109.163 129.85 162.669 86.8699 226.714C43.89 290.758 15.9332 363.689 5.08751 440.053C-5.7581 516.416 0.788002 594.243 24.2358 667.723C47.6837 741.202 87.4276 808.435 140.501 864.401C209.728 937.372 298.916 988.333 396.931 1010.92C494.945 1033.51 597.443 1026.73 691.626 991.418C785.809 956.108 867.503 893.839 926.51 812.381C985.516 730.923 1019.22 633.888 1023.41 533.391L1023.64 530.28V529.376C1023.76 526.097 1022.92 522.856 1021.22 520.046C1019.53 517.236 1017.05 514.982 1014.09 513.556Z" fill="white"/>
</svg>
